<?xml version="1.0"?>
<!-- Generated by SVGo -->
<svg width="250.752mm" height="98.352mm"
     viewBox="0.000 0.000 250.752 98.352"
     xmlns="http://www.w3.org/2000/svg" 
     xmlns:xlink="http://www.w3.org/1999/xlink">
<polygon points="35.451,5.000 35.451,11.150 11.151,11.150 11.151,87.202 239.602,87.202 239.602,11.150 45.301,11.150 45.301,5.000 243.752,5.001 243.908,5.007 244.064,5.025 244.218,5.056 244.370,5.098 244.517,5.153 244.659,5.218 244.796,5.295 244.927,5.382 245.050,5.480 245.166,5.586 245.272,5.702 245.370,5.825 245.457,5.956 245.534,6.093 245.599,6.235 245.654,6.382 245.696,6.534 245.727,6.688 245.745,6.844 245.752,7.001 245.752,91.352 245.745,91.508 245.727,91.664 245.696,91.818 245.654,91.970 245.599,92.117 245.534,92.259 245.457,92.396 245.370,92.527 245.272,92.650 245.166,92.766 245.050,92.872 244.927,92.970 244.796,93.057 244.659,93.134 244.517,93.199 244.370,93.254 244.218,93.296 244.064,93.327 243.908,93.345 243.752,93.351 7.001,93.352 6.844,93.345 6.688,93.327 6.534,93.296 6.382,93.254 6.235,93.199 6.093,93.134 5.956,93.057 5.825,92.970 5.702,92.872 5.586,92.766 5.480,92.650 5.382,92.527 5.295,92.396 5.218,92.259 5.153,92.117 5.098,91.970 5.056,91.818 5.025,91.664 5.007,91.508 5.000,91.352 5.001,7.001 5.007,6.844 5.025,6.688 5.056,6.534 5.098,6.382 5.153,6.235 5.218,6.093 5.295,5.956 5.382,5.825 5.480,5.702 5.586,5.586 5.702,5.480 5.825,5.382 5.956,5.295 6.093,5.218 6.235,5.153 6.382,5.098 6.534,5.056 6.688,5.025 6.844,5.007 7.001,5.000" style="fill:none;stroke-width:0.010000mm;stroke:blue"/>
<polygon points="242.375,89.349 242.103,89.488 241.888,89.703 241.749,89.975 241.702,90.277 241.749,90.578 241.888,90.850 242.103,91.065 242.375,91.204 242.677,91.251 242.978,91.204 243.250,91.065 243.465,90.850 243.604,90.578 243.652,90.277 243.604,89.975 243.465,89.703 243.250,89.488 242.978,89.349 242.677,89.302" style="fill:none;stroke-width:0.010000mm;stroke:blue"/>
<polygon points="164.175,89.349 163.903,89.488 163.687,89.703 163.549,89.975 163.501,90.277 163.549,90.578 163.687,90.850 163.903,91.065 164.175,91.204 164.476,91.251 164.777,91.204 165.049,91.065 165.265,90.850 165.403,90.578 165.451,90.277 165.403,89.975 165.265,89.703 165.049,89.488 164.777,89.349 164.476,89.302" style="fill:none;stroke-width:0.010000mm;stroke:blue"/>
<polygon points="85.975,89.349 85.703,89.488 85.487,89.703 85.349,89.975 85.301,90.277 85.349,90.578 85.487,90.850 85.703,91.065 85.975,91.204 86.276,91.251 86.577,91.204 86.849,91.065 87.065,90.850 87.203,90.578 87.251,90.277 87.203,89.975 87.065,89.703 86.849,89.488 86.577,89.349 86.276,89.302" style="fill:none;stroke-width:0.010000mm;stroke:blue"/>
<polygon points="7.774,89.349 7.502,89.488 7.287,89.703 7.148,89.975 7.100,90.277 7.148,90.578 7.287,90.850 7.502,91.065 7.774,91.204 8.075,91.251 8.377,91.204 8.649,91.065 8.864,90.850 9.003,90.578 9.050,90.277 9.003,89.975 8.864,89.703 8.649,89.488 8.377,89.349 8.075,89.302" style="fill:none;stroke-width:0.010000mm;stroke:blue"/>
<polygon points="7.774,7.148 7.502,7.287 7.287,7.502 7.148,7.774 7.100,8.075 7.148,8.377 7.287,8.649 7.502,8.864 7.774,9.003 8.075,9.051 8.377,9.003 8.649,8.864 8.864,8.649 9.003,8.377 9.050,8.075 9.003,7.774 8.864,7.502 8.649,7.287 8.377,7.148 8.075,7.101" style="fill:none;stroke-width:0.010000mm;stroke:blue"/>
<polygon points="85.975,7.148 85.703,7.287 85.487,7.502 85.349,7.774 85.301,8.075 85.349,8.377 85.487,8.649 85.703,8.864 85.975,9.003 86.276,9.050 86.577,9.003 86.849,8.864 87.065,8.649 87.203,8.377 87.251,8.075 87.203,7.774 87.065,7.502 86.849,7.287 86.577,7.148 86.276,7.101" style="fill:none;stroke-width:0.010000mm;stroke:blue"/>
<polygon points="164.175,7.148 163.903,7.287 163.687,7.502 163.549,7.774 163.501,8.075 163.549,8.377 163.687,8.649 163.903,8.864 164.175,9.003 164.476,9.050 164.777,9.003 165.049,8.864 165.265,8.649 165.403,8.377 165.451,8.075 165.403,7.774 165.265,7.502 165.049,7.287 164.777,7.148 164.476,7.101" style="fill:none;stroke-width:0.010000mm;stroke:blue"/>
<polygon points="242.375,7.148 242.103,7.287 241.888,7.502 241.749,7.774 241.702,8.075 241.749,8.377 241.888,8.649 242.103,8.864 242.375,9.003 242.677,9.050 242.978,9.003 243.250,8.864 243.465,8.649 243.604,8.377 243.652,8.075 243.604,7.774 243.465,7.502 243.250,7.287 242.978,7.148 242.677,7.101" style="fill:none;stroke-width:0.010000mm;stroke:blue"/>
</svg>
